<?xml version="1.0" ?><!DOCTYPE svg  PUBLIC '-//W3C//DTD SVG 1.1//EN'  'http://www.w3.org/Graphics/SVG/1.1/DTD/svg11.dtd'><svg enable-background="new 0 0 512 512" height="512px" id="Calque_1" version="1.1" viewBox="0 0 512 512" width="512px" xml:space="preserve" xmlns="http://www.w3.org/2000/svg" xmlns:xlink="http://www.w3.org/1999/xlink"><g><g><g><g id="XMLID_1_"><g><path d="M204.1,171.05c18.26,0,33.06,14.8,33.06,33.05c0,18.26-14.8,33.06-33.06,33.06       c-18.25,0-33.05-14.8-33.05-33.06C171.05,185.85,185.85,171.05,204.1,171.05z" fill="#2D9637"/><path d="M307.9,274.84c18.25,0,33.05,14.8,33.05,33.05c0,18.26-14.8,33.06-33.05,33.06       c-18.26,0-33.06-14.8-33.06-33.06C274.84,289.64,289.64,274.84,307.9,274.84z" fill="#2D9637"/><path d="M415.94,137.51v236.98H96.06V137.51H415.94z M340.95,307.89c0-18.25-14.8-33.05-33.05-33.05       c-18.26,0-33.06,14.8-33.06,33.05c0,18.26,14.8,33.06,33.06,33.06C326.15,340.95,340.95,326.15,340.95,307.89z M237.16,204.1       c0-18.25-14.8-33.05-33.06-33.05c-18.25,0-33.05,14.8-33.05,33.05c0,18.26,14.8,33.06,33.05,33.06       C222.36,237.16,237.16,222.36,237.16,204.1z" fill="#77D379"/><path d="M428.21,91.85c-21.53,0-21.53-23.35-43.06-23.35s-21.53,23.35-43.05,23.35       c-21.53,0-21.53-23.35-43.06-23.35S277.51,91.84,256,91.85h-0.01c-21.53,0-21.53-23.35-43.05-23.35       c-21.53,0-21.53,23.35-43.05,23.35c-21.53,0-21.53-23.35-43.05-23.35c-21.53,0-21.53,23.35-43.05,23.35       c-21.53,0-21.53-23.35-43.06-23.35v375c21.53,0,21.53-23.35,43.06-23.35s21.53,23.35,43.06,23.35s21.53-23.35,43.05-23.35       c21.53,0,21.53,23.35,43.06,23.35c21.52,0,21.52-23.34,43.04-23.35h0.01c21.53,0,21.53,23.35,43.05,23.35       c21.53,0,21.53-23.35,43.05-23.35c21.53,0,21.53,23.35,43.05,23.35c21.53,0,21.53-23.35,43.05-23.35       c21.53,0,21.53,23.35,43.06,23.35v-375C449.74,68.5,449.74,91.85,428.21,91.85z M415.94,374.49H96.06V137.51h319.88V374.49z" fill="#ECEFF0"/><path d="M428.21,410.65c-21.52,0-21.52,23.35-43.05,23.35       c-21.52,0-21.52-23.35-43.05-23.35c-21.52,0-21.52,23.35-43.05,23.35c-21.52,0-21.52-23.35-43.05-23.35S234.48,434,212.96,434       c-21.53,0-21.53-23.35-43.06-23.35c-21.52,0-21.52,23.35-43.05,23.35s-21.53-23.35-43.06-23.35S62.26,434,40.73,434v9.5       c21.53,0,21.53-23.35,43.06-23.35s21.53,23.35,43.06,23.35s21.53-23.35,43.05-23.35c21.53,0,21.53,23.35,43.06,23.35       c21.52,0,21.52-23.35,43.05-23.35s21.53,23.35,43.05,23.35c21.53,0,21.53-23.35,43.05-23.35c21.53,0,21.53,23.35,43.05,23.35       c21.53,0,21.53-23.35,43.05-23.35c21.53,0,21.53,23.35,43.06,23.35V434C449.74,434,449.74,410.65,428.21,410.65z" enable-background="new    " fill="#303C44" opacity="0.2"/></g><g><path d="M471.27,443.5c-21.53,0-21.53-23.35-43.06-23.35c-21.52,0-21.52,23.35-43.05,23.35       c-21.52,0-21.52-23.35-43.05-23.35c-21.52,0-21.52,23.35-43.05,23.35c-21.52,0-21.52-23.35-43.05-23.35       s-21.53,23.35-43.05,23.35c-21.53,0-21.53-23.35-43.06-23.35c-21.52,0-21.52,23.35-43.05,23.35s-21.53-23.35-43.06-23.35       S62.26,443.5,40.73,443.5v-375c21.53,0,21.53,23.35,43.06,23.35c21.52,0,21.52-23.35,43.05-23.35       c21.52,0,21.52,23.35,43.05,23.35c21.52,0,21.52-23.35,43.05-23.35c21.52,0,21.52,23.35,43.05,23.35       c21.52,0,21.52-23.35,43.05-23.35s21.53,23.35,43.06,23.35c21.52,0,21.52-23.35,43.05-23.35s21.53,23.35,43.06,23.35       s21.53-23.35,43.06-23.35V443.5z" fill="none"/><rect fill="none" height="236.98" width="319.88" x="96.06" y="137.51"/><g><g><path d="M182.84,333.16c-1.024,0-2.047-0.391-2.828-1.172c-1.563-1.562-1.563-4.095,0-5.656l146.321-146.33         c1.561-1.563,4.094-1.562,5.656,0c1.563,1.562,1.563,4.095,0,5.657l-146.32,146.33         C184.887,332.77,183.864,333.16,182.84,333.16z" fill="#2D9637"/></g></g><path d="M204.1,171.05c18.26,0,33.06,14.8,33.06,33.05c0,18.26-14.8,33.06-33.06,33.06       c-18.25,0-33.05-14.8-33.05-33.06C171.05,185.85,185.85,171.05,204.1,171.05z" fill="none"/><path d="M307.9,274.84c18.25,0,33.05,14.8,33.05,33.05c0,18.26-14.8,33.06-33.05,33.06       c-18.26,0-33.06-14.8-33.06-33.06C274.84,289.64,289.64,274.84,307.9,274.84z" fill="none"/></g></g></g><linearGradient gradientTransform="matrix(1 0 0 -1 29.1 515.4)" gradientUnits="userSpaceOnUse" id="SVGID_1_" x1="226.9" x2="442.17" y1="259.4" y2="259.4"><stop offset="0" style="stop-color:#000000"/><stop offset="1" style="stop-color:#FFFFFF;stop-opacity:0"/></linearGradient><path d="M471.27,68.5v375c-21.53,0-21.53-23.35-43.06-23.35    c-21.52,0-21.52,23.35-43.05,23.35c-21.52,0-21.52-23.35-43.05-23.35c-21.52,0-21.52,23.35-43.05,23.35    c-21.52,0-21.52-23.35-43.05-23.35H256v-45.66h159.94V137.51H256V91.85c21.51-0.01,21.51-23.35,43.04-23.35    s21.53,23.35,43.06,23.35c21.52,0,21.52-23.35,43.05-23.35s21.53,23.35,43.06,23.35S449.74,68.5,471.27,68.5z" enable-background="new    " fill="url(#SVGID_1_)" opacity="0.1"/></g><linearGradient gradientUnits="userSpaceOnUse" id="SVGID_2_" x1="190.3612" x2="321.6388" y1="201.5552" y2="428.9348"><stop offset="0" style="stop-color:#000000"/><stop offset="1" style="stop-color:#FFFFFF;stop-opacity:0"/></linearGradient><rect fill="url(#SVGID_2_)" height="118.49" opacity="0.1" width="319.88" x="96.06" y="256"/></g></svg>